<svg xmlns="http://www.w3.org/2000/svg" x="0px" y="0px" width="100" height="100" viewBox="0,0,300,150"
style="fill:#1A1A1A;">
<g fill="#1a1a1a" fill-rule="nonzero" stroke="none" stroke-width="1" stroke-linecap="butt" stroke-linejoin="miter" stroke-miterlimit="10" stroke-dasharray="" stroke-dashoffset="0" font-family="none" font-weight="none" font-size="none" text-anchor="none" style="mix-blend-mode: normal"><g transform="scale(5.33333,5.33333)"><path d="M37.62,9.38l-2.92,2.92c-1.47,1.47 -3.7,1.75 -5.58,0.85c-1.55,-0.74 -3.28,-1.15 -5.12,-1.15c-3.96,0 -7.47,1.91 -9.65,4.87l-6.44,-4.73c3.62,-4.94 9.48,-8.14 16.09,-8.14c5.27,0 10.05,2.05 13.62,5.38zM35,40.7c-3.16,2.09 -6.93,3.3 -11,3.3c-6.7,0 -12.62,-3.29 -16.23,-8.34l6.33,-4.88c2.16,3.15 5.78,5.22 9.9,5.22c1.57,0 3.06,-0.3 4.43,-0.86zM12,24c0,1.43 0.25,2.79 0.71,4.06l-6.51,5.02v0.03c-1.41,-2.73 -2.2,-5.83 -2.2,-9.11c0,-3.36 0.83,-6.53 2.31,-9.31l6.56,4.81c-0.56,1.39 -0.87,2.91 -0.87,4.5zM44,24c0,5.88 -2.55,11.18 -6.59,14.83c0,-0.01 0,-0.01 0,-0.02l-6.19,-5.24c1.86,-1.4 3.29,-3.33 4.08,-5.57h-7.3c-2.209,0 -4,-1.791 -4,-4v-4h19.61c0.25,1.27 0.39,2.66 0.39,4z"></path></g></g>
</svg>